<svg width="184" height="92" viewBox="0 0 184 92" fill="none" xmlns="http://www.w3.org/2000/svg">
<path d="M27.0256 1.13636V53.5H15.9545V11.6449H15.6477L3.65625 19.1619V9.34375L16.6193 1.13636H27.0256ZM60.0021 54.6506C55.6044 54.6335 51.8203 53.5511 48.6499 51.4034C45.4964 49.2557 43.0675 46.1449 41.3629 42.071C39.6754 37.9972 38.8402 33.0966 38.8572 27.3693C38.8572 21.6591 39.701 16.7926 41.3885 12.7699C43.093 8.74716 45.522 5.6875 48.6754 3.59091C51.8459 1.47727 55.6214 0.420453 60.0021 0.420453C64.3828 0.420453 68.1499 1.47727 71.3033 3.59091C74.4737 5.70454 76.9112 8.77273 78.6158 12.7955C80.3203 16.8011 81.1641 21.6591 81.147 27.3693C81.147 33.1136 80.2947 38.0227 78.5902 42.0966C76.9027 46.1705 74.4822 49.2812 71.3288 51.429C68.1754 53.5767 64.3999 54.6506 60.0021 54.6506ZM60.0021 45.4716C63.0021 45.4716 65.397 43.9631 67.1868 40.946C68.9766 37.929 69.8629 33.4034 69.8459 27.3693C69.8459 23.3977 69.4368 20.0909 68.6186 17.4489C67.8175 14.8068 66.6754 12.821 65.1925 11.4915C63.7266 10.1619 61.9964 9.49716 60.0021 9.49716C57.0192 9.49716 54.6328 10.9886 52.843 13.9716C51.0533 16.9545 50.1499 21.4205 50.1328 27.3693C50.1328 31.392 50.5334 34.75 51.3345 37.4432C52.1527 40.1193 53.3033 42.1307 54.7862 43.4773C56.2692 44.8068 58.0078 45.4716 60.0021 45.4716ZM98.2457 14.2273L105.456 27.9574L112.845 14.2273H124.018L112.641 33.8636L124.325 53.5H113.203L105.456 39.9233L97.8366 53.5H86.5866L98.2457 33.8636L86.9957 14.2273H98.2457Z" fill="url(#paint0_linear_625_1457)" fill-opacity="0.6"/>
<path d="M1.83594 92V75.5H3.1875V77.7891H3.35156C3.51823 77.4297 3.7474 77.0625 4.03906 76.6875C4.33073 76.3073 4.71615 75.987 5.19531 75.7266C5.67969 75.4661 6.28906 75.3359 7.02344 75.3359C8.01302 75.3359 8.8776 75.5964 9.61719 76.1172C10.362 76.6328 10.9401 77.3568 11.3516 78.2891C11.7682 79.2161 11.9766 80.2969 11.9766 81.5313C11.9766 82.7708 11.7682 83.8568 11.3516 84.7891C10.9401 85.7214 10.362 86.4479 9.61719 86.9687C8.8776 87.4896 8.01823 87.75 7.03906 87.75C6.3151 87.75 5.70833 87.6198 5.21875 87.3594C4.73438 87.099 4.34115 86.7786 4.03906 86.3984C3.74219 86.013 3.51302 85.638 3.35156 85.2734H3.22656V92H1.83594ZM3.21094 81.5078C3.21094 82.4766 3.35417 83.3359 3.64062 84.0859C3.93229 84.8307 4.34896 85.4167 4.89063 85.8437C5.4375 86.2656 6.09896 86.4766 6.875 86.4766C7.67188 86.4766 8.34375 86.2578 8.89063 85.8203C9.44271 85.3776 9.86198 84.7812 10.1484 84.0313C10.4401 83.2812 10.5859 82.4401 10.5859 81.5078C10.5859 80.5859 10.4427 79.7552 10.1563 79.0156C9.875 78.276 9.45833 77.6901 8.90625 77.2578C8.35417 76.8203 7.67708 76.6016 6.875 76.6016C6.09375 76.6016 5.42969 76.8125 4.88281 77.2344C4.33594 77.651 3.91927 78.2292 3.63281 78.9687C3.35156 79.7031 3.21094 80.5495 3.21094 81.5078ZM19.6914 87.75C18.6549 87.75 17.7383 87.487 16.9414 86.9609C16.1497 86.4349 15.5299 85.7083 15.082 84.7812C14.6341 83.849 14.4102 82.7734 14.4102 81.5547C14.4102 80.3255 14.6341 79.2448 15.082 78.3125C15.5299 77.375 16.1497 76.6458 16.9414 76.125C17.7383 75.599 18.6549 75.3359 19.6914 75.3359C20.7279 75.3359 21.6419 75.599 22.4336 76.125C23.2253 76.651 23.8451 77.3802 24.293 78.3125C24.7461 79.2448 24.9727 80.3255 24.9727 81.5547C24.9727 82.7734 24.7487 83.849 24.3008 84.7812C23.8529 85.7083 23.2305 86.4349 22.4336 86.9609C21.6419 87.487 20.7279 87.75 19.6914 87.75ZM19.6914 86.4766C20.5247 86.4766 21.2305 86.2526 21.8086 85.8047C22.3867 85.3568 22.8242 84.7604 23.1211 84.0156C23.4232 83.2708 23.5742 82.4505 23.5742 81.5547C23.5742 80.6589 23.4232 79.8359 23.1211 79.0859C22.8242 78.3359 22.3867 77.7344 21.8086 77.2812C21.2305 76.8281 20.5247 76.6016 19.6914 76.6016C18.8633 76.6016 18.1576 76.8281 17.5742 77.2812C16.9961 77.7344 16.556 78.3359 16.2539 79.0859C15.957 79.8359 15.8086 80.6589 15.8086 81.5547C15.8086 82.4505 15.957 83.2708 16.2539 84.0156C16.556 84.7604 16.9961 85.3568 17.5742 85.8047C18.1523 86.2526 18.8581 86.4766 19.6914 86.4766ZM30.2813 87.5L26.6562 75.5H28.125L30.9688 85.3984H31.0703L33.9063 75.5H35.3828L38.1953 85.375H38.3047L41.1484 75.5H42.6172L38.9922 87.5H37.5547L34.7109 77.6641H34.5625L31.7188 87.5H30.2813ZM49.7637 87.75C48.6439 87.75 47.6751 87.4896 46.8574 86.9687C46.0397 86.4427 45.4069 85.7161 44.959 84.7891C44.5163 83.8568 44.2949 82.7839 44.2949 81.5703C44.2949 80.362 44.5163 79.2891 44.959 78.3516C45.4069 77.4089 46.0241 76.6719 46.8105 76.1406C47.6022 75.6042 48.5163 75.3359 49.5527 75.3359C50.2038 75.3359 50.8314 75.4557 51.4355 75.6953C52.0397 75.9297 52.5814 76.2917 53.0605 76.7812C53.5449 77.2656 53.9277 77.8776 54.209 78.6172C54.4902 79.3516 54.6309 80.2214 54.6309 81.2266V81.9141H45.2559V80.6875H53.209C53.209 79.9167 53.0527 79.224 52.7402 78.6094C52.4329 77.9896 52.0033 77.5 51.4512 77.1406C50.9043 76.7812 50.2715 76.6016 49.5527 76.6016C48.7923 76.6016 48.123 76.8047 47.5449 77.2109C46.9668 77.6172 46.5137 78.1536 46.1855 78.8203C45.8626 79.487 45.6986 80.2161 45.6934 81.0078V81.7422C45.6934 82.6953 45.8574 83.5286 46.1855 84.2422C46.5189 84.9505 46.9902 85.5 47.5996 85.8906C48.209 86.2812 48.9303 86.4766 49.7637 86.4766C50.3314 86.4766 50.8288 86.388 51.2559 86.2109C51.6882 86.0339 52.0501 85.7969 52.3418 85.5C52.6387 85.1979 52.8626 84.8672 53.0137 84.5078L54.334 84.9375C54.1517 85.4427 53.8522 85.9089 53.4355 86.3359C53.0241 86.763 52.5085 87.1068 51.8887 87.3672C51.2741 87.6224 50.5658 87.75 49.7637 87.75ZM57.6953 87.5V75.5H59.0469V77.3437H59.1484C59.388 76.7396 59.8047 76.2526 60.3984 75.8828C60.9974 75.5078 61.6745 75.3203 62.4297 75.3203C62.5443 75.3203 62.6719 75.3229 62.8125 75.3281C62.9531 75.3333 63.0703 75.3385 63.1641 75.3438V76.7578C63.1016 76.7474 62.9922 76.7318 62.8359 76.7109C62.6797 76.6901 62.5104 76.6797 62.3281 76.6797C61.7031 76.6797 61.1458 76.8125 60.6563 77.0781C60.1719 77.3385 59.7891 77.7005 59.5078 78.1641C59.2266 78.6276 59.0859 79.1562 59.0859 79.75V87.5H57.6953Z" fill="#0D542B"/>
<defs>
<linearGradient id="paint0_linear_625_1457" x1="63.5" y1="1.5" x2="63.5" y2="53.5" gradientUnits="userSpaceOnUse">
<stop stop-color="#032E15"/>
<stop offset="1" stop-color="#016630"/>
</linearGradient>
</defs>
</svg>
